<svg width="512" height="512" viewBox="0 0 512 512" fill="none" xmlns="http://www.w3.org/2000/svg">
    <path id="Ellipse 1"
        d="M164 417C164 450.137 137.137 477 104 477C70.8629 477 44 450.137 44 417C44 383.863 70.8629 357 104 357C137.137 357 164 383.863 164 417Z"
        fill="#75A369" />
    <path id="Ellipse 2"
        d="M485 256C485 289.137 458.137 316 425 316C391.863 316 365 289.137 365 256C365 222.863 391.863 196 425 196C458.137 196 485 222.863 485 256Z"
        fill="#5FB7B1" />
    <path id="Ellipse 3"
        d="M164 96C164 129.137 137.137 156 104 156C70.8629 156 44 129.137 44 96C44 62.8629 70.8629 36 104 36C137.137 36 164 62.8629 164 96Z"
        fill="#B75FAE" />
    <path id="Vector 1" d="M172 420.5C218.5 420.5 384.5 415 409.5 323" stroke="#732081" stroke-width="40" />
    <path id="Vector 2" d="M433 188C443 50 287 94.5 171 94.5" stroke="#8a5050" stroke-width="40" />
    <path id="Vector 3" d="M149.5 142.5C201 199.5 205 317 153.5 369.5" stroke="#836538" stroke-width="40" />
</svg>